<svg version="1.1" xmlns="http://www.w3.org/2000/svg" viewBox="0 0 295 360" width="295" height="360">
	<path d="M147.57,122.16c-33.21,0-60.23-27.02-60.23-60.23S114.36,1.7,147.57,1.7s60.23,27.02,60.23,60.23
		S180.79,122.16,147.57,122.16z M147.57,17.78c-24.34,0-44.15,19.8-44.15,44.15s19.8,44.15,44.15,44.15
		c24.34,0,44.15-19.8,44.15-44.15S171.92,17.78,147.57,17.78z"/>
	<path d="M282.42,299.42c-6.69-6.7-16.06-10.75-26.02-17.14c0-3.26-0.09-9.53,0.03-15.8c0.01-0.77-0.01-1.5-0.08-2.21l-0.14-66.86
		c0.19-1.28,0.22-2.69,0.14-4.16c-0.04-0.77-0.1-1.53-0.16-2.29l0-0.06h0c-1.26-16.71-6.6-31.86-17.26-45.18
		c-14.09-17.61-32.42-27.78-56.29-31.29l-70.81-0.78c-3.51,0.76-6.2,1.38-8.91,1.94c-29.93,6.14-50.87,23.48-61.66,51.7
		c-3.79,9.9-5.14,21.17-5.41,31.86c-0.71,28.83-0.24,57.69-0.24,86.4c-3.2,0.99-5.74,1.56-8.12,2.54
		c-12.56,5.16-20.95,14.01-23.12,27.64c-2.3,14.47,1.57,27.53,14.39,35.11c7.48,4.42,17.19,7.02,25.92,7.09
		c68.39,0.56,136.79,0.31,205.19,0.3c2.58,0,5.19,0.06,7.75-0.22c13.91-1.52,24.54-8.13,30.19-21.07
		C293.66,323.53,292.94,309.95,282.42,299.42z M147.08,129.51c14.04,0.45,28.44-0.74,42.04,2c29.83,6.01,47.76,27.7,51.5,59.4
		l0.53,83.93c0,3.57-0.01,7.13-0.01,10.66c-7.74,0-14.2,0-21.24,0c0-26.85-0.2-53.15,0.12-79.44c0.09-7.65-2.05-11.89-10-14.3
		c-24.29-7.38-45.65-20.16-63.66-38.03c-7.09-7.05-13.13-15.15-20.92-24.25C134.46,129.48,140.77,129.31,147.08,129.51z
		M140.39,323.6c-1.86,11.8-9.47,19.2-21.49,19.31c-26.37,0.25-52.74,0.27-79.11-0.03c-12.25-0.14-20.8-8.96-20.97-20.46
		c-0.18-12.01,8.38-20.95,21.14-21.03c34.95-0.21,69.91-0.07,104.59-0.07C143.05,309.28,141.52,316.42,140.39,323.6z M90.55,285.72
		c0-12.24,0-24.15,0-36.06c0-2.86,0.12-5.73-0.07-8.58c-0.34-5.11-2.51-9.86-8.17-8.4c-2.89,0.74-6.49,5.49-6.71,8.64
		c-0.79,11.68-0.32,23.44-0.32,35.17c0,2.82,0,5.64,0,9.02c-8.11,0-15.68,0-24.39,0c0-4.25,0-8.43,0-12.61
		c0.01-25.18-0.25-50.36,0.08-75.53c0.41-30.98,18.27-55.57,46.06-64.67c7.25-2.38,12.02-1.9,16.95,5.47
		c21.03,31.45,49.96,53.18,85.72,65.88c1.58,0.56,3.07,1.37,4.61,2.07c0,26.41,0,52.66,0,79.59
		C166.12,285.71,128.88,285.71,90.55,285.72z M256.55,342.77c-35.26,0.39-70.52,0.14-105.5,0.14c1.75-8.36,3.47-15.78,4.81-23.25
		c2.12-11.79,8.5-18.11,20.19-18.22c26.68-0.25,53.36-0.27,80.03,0.03c11.73,0.13,19.72,8.82,19.89,20.37
		C276.14,333.25,268.18,342.64,256.55,342.77z"/>
</svg>