<?xml version="1.0" encoding="utf-8"?>
<svg version="1.1" xmlns="http://www.w3.org/2000/svg" xmlns:xlink="http://www.w3.org/1999/xlink"
	 viewBox="0 0 321 521" width="321" height="521">
<style type="text/css">
	.st0{fill:none;stroke:#FFFFFF;stroke-width:4;stroke-linecap:round;stroke-miterlimit:10;}
</style>
<g>
	<path d="M224.3,420.04c-1.84,1.03-3.72,1.38-5.15-0.88c-1.42-2.38-0.24-3.68,1.44-4.71l10.76-6.66c-4.68-7.33-9.2-14.3-13.6-21.34
		c-32-51.14-64.76-101.82-95.77-153.56C85.74,172.43,51.01,111.08,15.71,50.07C9.51,39.36,8.19,20.43,12.7,6.78
		C87.53,139.62,166.07,269.08,247.95,397c3.42-2.01,6.51-4.24,9.95-5.67c0.3-0.12,0.61-0.2,0.94-0.24c2.99-0.37,4.74,3.54,2.44,5.49
		c-0.01,0.01-0.03,0.02-0.04,0.03c-2.81,2.3-6.1,4.02-9.54,6.19c5.74,9.19,11.36,18.22,17.01,27.24
		c13.81,22.03,27.64,44.05,41.45,66.07c4.06,6.48,3.4,9-3.44,13.32c-6.71,4.24-9.28,3.71-13.42-2.9
		c-18.52-29.5-37.02-59.02-55.53-88.52c-0.88-1.4-1.81-2.77-3.02-4.61"/>
</g>
<line class="st0" x1="240.36" y1="412.79" x2="249.29" y2="407.31"/>
<line class="st0" x1="245.01" y1="420.75" x2="253.95" y2="415.28"/>
<line class="st0" x1="249.93" y1="429.17" x2="258.87" y2="423.7"/>
<line class="st0" x1="255.4" y1="437.71" x2="264.34" y2="432.24"/>
<line class="st0" x1="261.25" y1="446.52" x2="270.19" y2="441.04"/>
<line class="st0" x1="265.91" y1="454.49" x2="274.84" y2="449.01"/>
<line class="st0" x1="270.83" y1="462.9" x2="279.76" y2="457.43"/>
<line class="st0" x1="276.3" y1="471.44" x2="285.23" y2="465.97"/>
<line class="st0" x1="281.84" y1="480.82" x2="290.62" y2="475.09"/>
<line class="st0" x1="287.94" y1="489.46" x2="296.71" y2="483.73"/>
<line class="st0" x1="303.69" y1="513.94" x2="312.46" y2="508.22"/>
</svg>
