<svg version="1.1" xmlns="http://www.w3.org/2000/svg" viewBox="0 0 274 360" width="274" height="360">
	<style type="text/css">
		.st0{fill:none;}
	</style>
	<g>
		<g>
			<path class="st0" d="M223.14,43.98c11.69-0.45,20.42-7.49,25.12-20.32c-3.85,0-6.47,0-9.1,0c-20.58,0.02-41.17-0.34-61.73,0.19
				c-14.5,0.37-24.57,8.24-27.84,20.42C174.18,44.27,198.69,44.93,223.14,43.98z"/>
			<path class="st0" d="M126.09,85.42h19.1v24.64L229,154.5l0-1.55c-4.28-50.49-45.17-87.86-93.91-87.15
				c-48.61,0.71-89.4,38.84-91.98,86.31l-0.01,1.95l83-44V85.42z"/>
			<path class="st0" d="M135.42,293.62l-92.78-48.44l-0.03,5.11c0,16.74,0,32.56,0,48.94c30.23,11.9,59.86,23.61,89.56,35.16
				c1.98,0.77,4.73,1.01,6.64,0.27c30.19-11.68,60.3-23.56,90.22-35.31c0-16.49,0-32.45,0-49.2l0-3.3L135.42,293.62z"/>
		</g>
		<path d="M250.02,155.5c-1.3-34.34-15.58-62.51-41.92-84.53l-6.09-5.18c17.95,0.98,37.56-1.12,51.68-13.67
			c14.55-12.94,18.66-29.34,16.94-48.82c-1.84-0.12-3.12-0.28-4.39-0.28c-29.32-0.01-58.65-0.21-87.97,0.06
			c-24.15,0.22-42.02,13.38-50.02,36.57c-1.43,4.13-3.42,5.69-7.67,6.33C66.56,54.09,26.71,95.38,22.5,149.56l-0.12,15.49
			L3.02,175.31v49.19l18.8,9.82l-0.06,7.32l-0.1,5.73c-0.36,19.81,0,39.63-0.24,59.45c-0.06,4.61,1.29,6.94,5.73,8.66
			c34.63,13.46,69.13,27.26,103.78,40.69c2.84,1.1,6.81,1.21,9.62,0.13c34.9-13.5,69.65-27.38,104.53-40.95
			c4.12-1.6,5.47-3.71,5.41-8.09c-0.25-17.44,0.88-34.95-0.44-52.29l-0.01-18.6l18.21-9.09v-51.96l-18.23-9.67L250.02,155.5z
			M177.43,23.85c20.57-0.52,41.16-0.17,61.73-0.19c2.62,0,5.25,0,9.1,0c-4.7,12.84-13.44,19.87-25.12,20.32
			c-24.45,0.95-48.96,0.29-73.54,0.29C152.86,32.09,162.93,24.21,177.43,23.85z M43.1,152.12c2.59-47.47,43.37-85.6,91.98-86.31
			c48.75-0.72,89.63,36.66,93.91,87.15l0,1.55l-83.81-44.43V85.42h-19.1v24.64l-83,44L43.1,152.12z M229.04,299.36
			c-29.91,11.75-60.03,23.63-90.22,35.31c-1.92,0.74-4.66,0.5-6.64-0.27c-29.7-11.55-59.34-23.26-89.56-35.16c0-16.38,0-32.2,0-48.94
			l0.03-5.11l92.78,48.44l93.62-46.76l0,3.3C229.04,266.91,229.04,282.87,229.04,299.36z M245.44,217.37l-40.29,20.07l-69.54,34.73
			l-68.4-35.71l-41.38-21.53v-30.1l17.15-9.09v0l92.65-49.12l68.43,36.28l0,0l0.37,0.2l24.57,13.03v0l16.44,8.72V217.37z"/>
		<g>
			<rect x="41.72" y="190.47" width="21.22" height="20.69"/>
			<rect x="209.15" y="190.47" width="21.22" height="20.69"/>
			<rect x="84.42" y="168.99" width="21.22" height="60.47"/>
			<rect x="166.78" y="168.99" width="21.22" height="60.47"/>
			<rect x="125.6" y="148.3" width="21.22" height="102.84"/>
		</g>
	</g>
</svg>
