<?xml version="1.0" encoding="utf-8"?>
<svg version="1.1" xmlns="http://www.w3.org/2000/svg" xmlns:xlink="http://www.w3.org/1999/xlink"
	 viewBox="0 0 363 363" width="363" height="363">
<style type="text/css">
	.st0{fill:#010101;}
	.st1{fill:none;}
</style>
<path class="st0" d="M148.26,133.06c-27.76,26.57-55.55,53.1-83.32,79.65c-2.56,2.45-5.5,5.09-2.15,8.74
	c3.47,3.78,6.67,1.62,9.59-1.16c27.59-26.35,55.18-52.7,82.75-79.07c1.72-1.64,3.5-3.33,3.82-6.34c-0.33-1.54-1.18-3.25-2.92-4.13
	C152.82,129.14,150.5,130.92,148.26,133.06z"/>
<path class="st1" d="M185.04,287.1c3.75-0.2,6.37-0.6,5.57-5.17c0.72-4.18-1.1-5.52-5.26-5.54c-3.99-0.02-5.66,0.88-5.54,5.24
	C179.9,285.51,180.6,287.33,185.04,287.1z"/>
<path class="st1" d="M85.3,245.2c10.57-0.62,16.43,3.78,17.68,14.76c0.68,6,6.08,6.57,11.2,6.34c5.93-0.27,2.43-4.72,3.03-7.18
	c0.61-2.51,0.13-5.28,0.13-7.94c0-15.56,0-15.56-15.67-15.55c-2.93,0-5.92-0.24-8.79,0.2c-3.11,0.48-6.16,1.54-9.17,2.54
	c-2.29,0.76-2.09,2.82-1.94,4.69C81.95,245.31,83.71,245.29,85.3,245.2z"/>
<path class="st1" d="M205.75,286.89c3.84,0.61,6.01-0.3,5.94-4.84c-0.07-3.91-0.96-5.75-5.33-5.66c-3.79,0.08-5.91,0.56-5.64,5.12
	C200.93,285.12,201.03,287.95,205.75,286.89z"/>
<path class="st1" d="M227.62,287.08c4.17,0.09,6.09-1.19,5.25-5.46c0.94-4.72-1.85-5.1-5.57-5.23c-4.23-0.15-5.39,1.42-5.48,5.53
	C221.73,286.53,223.84,287,227.62,287.08z"/>
<path class="st1" d="M23.3,234.32c-4.08-0.04-5.56,1.05-5.62,5.37c-0.07,4.69,1.61,5.78,6.03,5.79c4.55,0.01,5.63-1.91,4.98-5.82
	C29.59,235.2,27.28,234.36,23.3,234.32z"/>
<path class="st1" d="M127.69,260.7c-0.39,4.64,1.44,5.58,5.84,5.79c5.16,0.24,4.8-2.54,4.73-5.85c-0.07-3.19-0.13-6.38,0.09-9.56
	c0.22-3.27,1.88-5.63,5.44-5.68c3.3-0.05,4.77,2.46,5.13,5.16c0.46,3.4,0.48,6.9,0.23,10.33c-0.28,3.89,0.56,5.63,5.09,5.58
	c4.3-0.04,5.65-1.39,5.22-5.45c-0.28-2.63-0.05-5.31-0.05-7.97c0-15.89-2.69-18.38-18.81-17.41c-1.06,0.06-2.13,0.14-3.19,0.3
	c-6.45,0.97-10.97,3.29-9.76,11.23C128.33,251.59,128.07,256.22,127.69,260.7z"/>
<path class="st1" d="M276.3,255.23c-4.85-0.11-4.84,2.26-5.03,5.84c-0.23,4.19,1.07,5.52,5.33,5.33c7.48-0.34,15.04-0.68,22.46,0.06
	c8.97,0.9,13.95-4.5,21.16-11.12C304.01,255.34,290.15,255.54,276.3,255.23z"/>
<path class="st1" d="M323.03,123.67c-2.74-5.01-6.61-7.11-12.33-7.1c-37.49,0.11-74.98,0.11-112.46,0
	c-4.82-0.01-6.33,0.81-3.79,5.72c20.28,39.24,20.28,78.58-0.12,117.76c-2.46,4.73-0.94,5.25,3.42,5.22
	c18.74-0.12,37.49-0.05,56.23-0.05c19.01,0,38.02-0.12,57.03,0.08c5.46,0.06,9.14-1.98,11.72-6.66
	C343.8,200.36,343.99,162.07,323.03,123.67z"/>
<path class="st1" d="M253.11,276.48c-8.7-0.37-11.44,2.47-10.13,10.56c1.26,7.79-2.37,10.25-10,10.07
	c-16.87-0.41-33.75-0.13-50.63-0.13c-13.13,0-13.45-0.01-13.15-13.5c0.13-5.79-1.75-7.02-7.2-6.9c-16.33,0.36-32.68,0.22-49.02,0.1
	c-12.21-0.09-17.97-4.27-20.61-15.8c-0.95-4.14-2.64-5.07-6.38-5.03c-12.59,0.14-25.18,0.05-37.77,0.05
	c-15.53,0-15.37-0.04-11.16,15.24c1.21,4.4,3.17,5.96,7.78,5.69c7.21-0.42,14.46,0.01,21.69-0.15c5.48-0.12,9.69,1.68,13.13,6.12
	c6.89,8.88,16.2,13.97,27.43,14.6c11.22,0.63,22.48,0.53,33.72,0.63c3.64,0.03,7.58-0.1,7.7,4.72c0.13,5.2-3.92,5.49-7.92,5.46
	c-10.45-0.08-20.9,0.08-31.34-0.15c-14.7-0.32-26.88-6.21-36.61-17.14c-1.76-1.98-3.13-4.01-6.44-3.89
	c-7.43,0.28-14.88,0.09-22.15,0.09c-0.24,0.74-0.45,1.04-0.39,1.24c0.32,0.98,0.65,1.97,1.1,2.9
	c18.41,38.25,50.12,56.96,91.52,58.25c46.83,1.46,93.74,0.66,140.61,0.84c1.07,0,2.16,0.06,3.21-0.09c6.17-0.85,7.81-3.88,4.64-9.35
	c-2.7-4.64-5.47-9.29-6.07-14.63c-0.41-3.7-2.19-4.07-5.24-3.99c-9.79,0.27-19.67-1.07-28.98,3.8c-4.49,2.35-9.79,2.59-14.9,2.61
	c-14.73,0.05-29.47,0.04-44.2,0.04c-4.16,0-8.78-0.03-8.59-5.73c0.17-5.08,4.59-5.17,8.41-5.18c15-0.05,30.01-0.07,45.01,0.01
	c4.61,0.02,9.26-0.16,13.29-2.38c5.66-3.11,11.6-4.12,17.82-3.47c10.78,1.14,19.04-0.26,25.05-11.69
	c4.49-8.54,13.43-14.75,21.92-23.58C288.42,276.7,270.74,277.23,253.11,276.48z"/>
<path class="st1" d="M45.23,245.47c5,0.17,4.97-2.53,4.6-6.05c0.96-4.4-1.38-5.04-5.3-5.11c-4.3-0.08-5.31,1.52-5.44,5.53
	C38.93,244.64,41.04,245.33,45.23,245.47z"/>
<path d="M360.3,232.5c-3.57-4.48-7.13-1.32-10.35,1.11c-5.96,4.49-11.88,9.03-17.82,13.55c20.82-39.44,22.98-79.01,4.98-119.76
	c2.62-0.23,4.81-0.14,6.82-0.68c2.22-0.6,3.47-2.32,3.43-4.8c-0.04-2.45-1.33-4.87-3.51-4.56c-9.52,1.35-15.61-4.6-22.43-9.39
	c-2.89-2.03-6.62-1.78-10.12-1.76c-11.52,0.04-23.03-0.03-34.55,0.05c-3.13,0.02-5.69,0.28-5.49-4.34c0.17-3.98,0.43-6.04,5.47-6.27
	c13.4-0.6,18.8-4.8,22.13-15.62c1.34-4.35,2.64-8.86,1.9-13.35c-1.28-7.75,0.87-11.4,9.37-9.9c3.46,0.61,6.62-0.57,6.55-4.94
	c-0.07-4.25-3.1-5.11-6.65-5.1c-2.95,0.01-5.89-0.02-8.84,0c-2.15,0.01-4.06,0.01-5.6-2.16c-4.75-6.73-11.64-9.14-19.61-8.46
	c-4.26,0.36-4.67-1.69-4.7-5.15c-0.04-3.57,0.6-5.48,4.77-5.12c3.99,0.34,8.03,0.15,12.04,0.05c3.69-0.09,7.41-0.92,7.51-5.38
	c0.11-4.5-3.44-5.49-7.25-5.53c-2.95-0.03-5.91-0.22-8.83,0.04c-5.33,0.46-9.47,0.17-8.32-7.13c0.45-2.84-1.65-5.17-4.69-5.53
	c-3.15-0.37-5.86,1.87-5.49,4.51c1.34,9.61-5.01,8.2-10.7,8.11c-2.68-0.04-5.36-0.08-8.03,0.05c-3.28,0.17-5.76,1.55-5.95,5.18
	c-0.19,3.78,2.57,5.25,5.63,5.51c4.52,0.39,9.12,0.48,13.64,0.1c4.59-0.39,5.07,1.72,5.18,5.56c0.12,4.16-1.54,4.99-5.17,4.71
	c-5.15-0.4-11.61-0.7-13.87,4.1c-3.72,7.89-9.83,6.45-15.99,6.54c-2.14,0.03-4.31-0.05-6.41,0.27c-2.76,0.43-4.16,2.34-4.07,5.07
	c0.09,2.75,1.58,4.52,4.44,4.68c2.94,0.16,5.89,0.1,8.83,0.1c13.31,0.01,14.01,0.77,12.41,13.91c-0.19,1.57-0.68,3.11-1.09,4.66
	c-3.78,14.48,0,19.82,15.1,20.26c4.58,0.13,5.75,1.41,5.85,5.88c0.12,5.06-2.62,4.7-5.99,4.69c-19.55-0.06-39.1,0.05-58.65-0.08
	c-5.14-0.03-10.25,0.67-12.34,5.56c-2.06,4.82-5.19,5.24-9.42,4.95c-2.39-0.16-4.82-0.03-7.2,0.26c-3.02,0.37-5.02,2.1-4.74,5.3
	c0.27,3.06,2.27,4.71,5.39,4.77c3.48,0.06,7.01,0.39,10.43-0.05c5.38-0.69,7.91,1.44,10.11,6.41c15.37,34.73,14.07,68.7-3.61,102.21
	c-6.44,12.21-1.95,19.76,11.69,19.78c19.28,0.04,38.57,0.16,57.85-0.1c4.75-0.06,6.42,0.93,6.52,6.06c0.1,5.59-2.88,5.02-6.48,5.01
	c-21.69-0.06-43.39,0-65.08-0.05c-6.11-0.02-14.26,2.02-17.81-1.06c-4.19-3.64-1.23-11.97-1.32-18.26
	c-0.22-15.17-1.85-17.47-16.86-20.79c-3.63-0.8-7.38-1.38-11.09-1.42c-14.46-0.16-28.92-0.09-43.38-0.06
	c-7.31,0.02-14.27,1.56-20.92,4.69c-4.74,2.23-8.18,5.08-7.24,10.94c0.61,3.79-0.92,5.06-4.85,5.03c-4.01-0.03-6.07-0.93-5.64-5.32
	c0.26-2.64-0.04-5.33,0.06-7.99c0.18-5.22-1.8-7.8-7.53-7.71c-14.73,0.24-29.46,0.11-44.19,0.06c-2.83-0.01-5.5,0.24-6.53,3.35
	c-0.99,2.98,0.49,4.77,3,6.54c4.52,3.19,4.07,7.71,0.59,10.97c-2.3,2.15-4.83,3.64-3.57,6.99c1.22,3.24,4.41,3.52,7.43,3.62
	c2.14,0.07,4.31,0.22,6.42,0c5.2-0.56,7.54,0.51,8.61,6.76c9.85,57.66,55.3,96.89,113.66,97.74c46.05,0.67,92.12,0.21,138.18,0.46
	c7.71,0.04,14.55-1.21,18.64-8.33c3.97-6.92,1.45-13.13-2.49-19.39c-5.97-9.48-5.09-18.68,2.15-27.17c2.76-3.25,6.27-5.9,8.84-9.27
	c6.25-8.23,18.89-12.52,16.53-26.29c-0.17-0.97,2.44-2.51,3.89-3.62c10.82-8.27,21.72-16.43,32.47-24.8
	C359.34,239.65,364.16,237.33,360.3,232.5z M23.71,245.47c-4.42-0.01-6.1-1.1-6.03-5.79c0.06-4.31,1.55-5.41,5.62-5.37
	c3.98,0.04,6.29,0.88,5.39,5.33C29.34,243.57,28.26,245.48,23.71,245.47z M251.46,85.06c-3.57-0.03-2.53-2.83-1.93-4.67
	c3.12-9.65,3.22-19.25-0.07-28.86c-1.13-3.31-0.23-4.98,3.61-4.83c4.52,0.18,9.06,0.04,13.59,0.04c1.6,0,3.2-0.1,4.8,0.01
	c6.08,0.42,13.42-2.17,16.5,6c3.72,9.85,4,19.7-1.64,29.03c-0.86,1.42-2.93,2.91-4.49,2.97C271.7,85.08,261.57,85.14,251.46,85.06z
	 M227.3,276.4c3.72,0.13,6.51,0.5,5.57,5.23c0.84,4.27-1.08,5.54-5.25,5.46c-3.78-0.08-5.89-0.55-5.79-5.15
	C221.9,277.82,223.06,276.25,227.3,276.4z M206.36,276.38c4.37-0.09,5.26,1.75,5.33,5.66c0.08,4.54-2.1,5.45-5.94,4.84
	c-4.72,1.06-4.82-1.77-5.03-5.39C200.45,276.95,202.57,276.46,206.36,276.38z M185.34,276.38c4.16,0.02,5.99,1.36,5.26,5.54
	c0.8,4.58-1.82,4.98-5.57,5.17c-4.44,0.24-5.14-1.58-5.24-5.48C179.69,277.26,181.36,276.36,185.34,276.38z M137.41,235.95
	c1.05-0.16,2.12-0.24,3.19-0.3c16.12-0.98,18.81,1.51,18.81,17.41c0,2.66-0.22,5.34,0.05,7.97c0.43,4.06-0.92,5.41-5.22,5.45
	c-4.52,0.04-5.37-1.7-5.09-5.58c0.25-3.43,0.23-6.93-0.23-10.33c-0.37-2.7-1.83-5.21-5.13-5.16c-3.56,0.05-5.23,2.41-5.44,5.68
	c-0.21,3.18-0.15,6.37-0.09,9.56c0.07,3.31,0.43,6.09-4.73,5.85c-4.4-0.2-6.23-1.15-5.84-5.79c0.38-4.49,0.64-9.11-0.04-13.52
	C126.44,239.24,130.97,236.92,137.41,235.95z M83.72,238.36c3.01-1,6.05-2.06,9.17-2.54c2.87-0.45,5.86-0.2,8.79-0.2
	c15.67-0.01,15.67-0.01,15.67,15.55c0,2.66,0.47,5.43-0.13,7.94c-0.6,2.46,2.9,6.92-3.03,7.18c-5.11,0.23-10.51-0.34-11.2-6.34
	c-1.25-10.97-7.11-15.37-17.68-14.76c-1.59,0.09-3.35,0.11-3.53-2.15C81.63,241.19,81.43,239.12,83.72,238.36z M44.53,234.31
	c3.92,0.07,6.26,0.71,5.3,5.11c0.37,3.51,0.4,6.22-4.6,6.05c-4.19-0.14-6.3-0.83-6.14-5.63C39.22,235.84,40.23,234.23,44.53,234.31z
	 M286.33,300.28c-6.01,11.43-14.26,12.83-25.05,11.69c-6.22-0.66-12.17,0.35-17.82,3.47c-4.02,2.21-8.68,2.4-13.29,2.38
	c-15-0.07-30.01-0.06-45.01-0.01c-3.82,0.01-8.24,0.1-8.41,5.18c-0.19,5.7,4.43,5.73,8.59,5.73c14.74,0,29.47,0.01,44.2-0.04
	c5.11-0.02,10.41-0.26,14.9-2.61c9.31-4.88,19.19-3.54,28.98-3.8c3.04-0.08,4.82,0.29,5.24,3.99c0.6,5.35,3.37,9.99,6.07,14.63
	c3.18,5.47,1.54,8.51-4.64,9.35c-1.05,0.14-2.14,0.09-3.21,0.09c-46.87-0.18-93.78,0.62-140.61-0.84
	c-41.4-1.29-73.11-19.99-91.52-58.25c-0.45-0.93-0.78-1.92-1.1-2.9c-0.07-0.2,0.14-0.5,0.39-1.24c7.27,0,14.72,0.19,22.15-0.09
	c3.3-0.12,4.67,1.91,6.44,3.89c9.73,10.93,21.92,16.82,36.61,17.14c10.44,0.22,20.89,0.07,31.34,0.15c4,0.03,8.06-0.26,7.92-5.46
	c-0.12-4.82-4.06-4.68-7.7-4.72c-11.24-0.11-22.5,0-33.72-0.63c-11.23-0.63-20.54-5.72-27.43-14.6c-3.44-4.44-7.65-6.24-13.13-6.12
	c-7.23,0.16-14.48-0.27-21.69,0.15c-4.61,0.27-6.57-1.29-7.78-5.69c-4.21-15.28-4.37-15.24,11.16-15.24
	c12.59,0,25.18,0.09,37.77-0.05c3.74-0.04,5.43,0.89,6.38,5.03c2.64,11.53,8.4,15.71,20.61,15.8c16.34,0.12,32.69,0.26,49.02-0.1
	c5.46-0.12,7.34,1.11,7.2,6.9c-0.31,13.49,0.02,13.5,13.15,13.5c16.88,0,33.76-0.29,50.63,0.13c7.62,0.19,11.25-2.28,10-10.07
	c-1.31-8.09,1.44-10.93,10.13-10.56c17.63,0.75,35.31,0.23,55.14,0.23C299.77,285.53,290.82,291.75,286.33,300.28z M299.06,266.46
	c-7.42-0.74-14.99-0.4-22.46-0.06c-4.25,0.19-5.56-1.14-5.33-5.33c0.2-3.58,0.19-5.95,5.03-5.84c13.85,0.31,27.71,0.11,43.91,0.11
	C313.01,261.95,308.02,267.35,299.06,266.46z M322.73,238.64c-2.58,4.68-6.25,6.71-11.72,6.66c-19.01-0.19-38.02-0.08-57.03-0.08
	c-18.74,0-37.49-0.07-56.23,0.05c-4.36,0.03-5.88-0.49-3.42-5.22c20.4-39.19,20.4-78.52,0.12-117.76c-2.54-4.91-1.03-5.74,3.79-5.72
	c37.49,0.11,74.98,0.12,112.46,0c5.72-0.02,9.59,2.08,12.33,7.1C343.99,162.07,343.8,200.36,322.73,238.64z"/>
</svg>
