<svg xmlns="http://www.w3.org/2000/svg" viewBox="0 0 139 340">
	<path d="M131.03,326.08c4.61-0.04,5.66,1.26,5.69,5.74c0.03,4.64-1.36,5.65-5.8,5.64c-107.58-0.12-15.16-0.11-122.74,0.02
		c-4.51,0.01-5.78-1.14-5.77-5.7c0-4.54,1.18-5.77,5.75-5.73c25.96,0.24,23.93,0.01,49.9,0.24c4.56,0.04,5.83-1.23,5.7-5.75
		c-0.32-11.15-0.36-22.32,0.01-33.47c0.16-4.76-1.5-5.62-5.83-5.64c-8.99-0.02-18.07,1.19-26.98-1.26
		c-17.25-4.76-29.31-21.2-28.52-39.05c0.09-1.93-0.76-4.36,2.75-4.25c8.79,0.26,17.76-0.65,26.35,0.77
		c16.16,2.75,26.21,13.31,32.05,28.58c0-12.22-0.1-24.45,0.07-36.67c0.05-3.25-1.28-3.83-4.09-3.76c-6.26,0.15-12.52,0.11-18.78,0.03
		c-21.77-0.28-38.98-18.38-38.51-40.12c0.08-3.67,1.04-4.75,4.65-4.59c7.87,0.35,15.9-0.64,23.6,0.57
		c16.55,2.62,27.04,12.92,33.06,28.72c0-12.35-0.08-24.71,0.06-37.06c0.03-2.99-1.34-3.38-3.78-3.34c-6.49,0.1-12.98,0.12-19.47,0.01
		C18.8,169.65,1.34,151,2.38,129.49c0.1-2.02-0.55-4.29,2.88-4.14c8.79,0.37,17.68-0.95,26.37,0.66
		c15.24,2.83,25.07,12.16,30.94,28.56c0.69-2.69,1.31-35.96,1.06-38.13c-0.36-3.05-2.55-2.13-4.16-2.16
		c-6.26-0.1-12.52,0.03-18.78-0.06c-21.73-0.3-39.05-18.51-38.27-40.23c0.07-1.81-1.1-4.54,2.54-4.41
		c9.01,0.35,18.12-1.05,27.04,0.75c15.93,3.22,25.74,13.41,31.57,28.5c0-8.21-0.08-16.42,0.05-24.63c0.04-2.48-1.52-3.69-2.94-5.18
		C41.81,49.1,41.96,27.64,61.09,8.39c8.09-8.14,8.09-8.14,16.3,0.16c18.82,19,19.08,41,0.53,60.06c-2.28,2.35-3.34,4.63-3.24,7.9
		c0.21,7.43,0.07,14.87,0.07,24.31c1.41-3.48,2.05-5.24,2.83-6.93c7.03-15.34,18.82-23.7,35.78-24.27c6.25-0.21,12.52,0.12,18.78-0.1
		c3.05-0.11,3.76,0.87,3.92,3.89c1.12,21.41-16.31,40.37-37.83,40.8c-6.49,0.13-12.99,0.15-19.47-0.01
		c-2.84-0.07-4.11,0.54-4.06,3.78c0.18,12.22,0.07,24.45,0.49,36.89c5.38-15.49,15.44-26.05,31.63-28.75
		c8.59-1.43,17.56-0.5,26.35-0.77c2.77-0.09,2.68,1.47,2.85,3.49c1.72,20.65-15.78,40.39-36.71,41.14
		c-6.48,0.23-12.99,0.24-19.47-0.01c-3.69-0.14-5.27,0.65-5.17,4.84c0.29,11.84,0.1,23.7,0.1,37.54c1.41-3.42,2.06-5.15,2.82-6.83
		c7.01-15.35,18.8-23.72,35.75-24.3c6.25-0.21,12.52,0.12,18.78-0.1c3-0.1,3.79,0.77,3.95,3.85c1.14,21.4-16.29,40.4-37.79,40.84
		c-6.49,0.13-12.99,0.14-19.47-0.01c-2.79-0.06-4.15,0.45-4.1,3.74c0.18,12.23,0.07,24.47,0.49,36.92
		c5.4-15.46,15.42-26.03,31.61-28.73c8.59-1.43,17.56-0.5,26.35-0.78c2.74-0.09,2.7,1.43,2.87,3.46c1.77,20.6-15.77,40.4-36.69,41.16
		c-6.48,0.24-12.99,0.23-19.47-0.01c-3.66-0.14-5.3,0.59-5.19,4.81c0.29,11.85,0.2,23.71,0.04,35.56c-0.04,3.21,0.72,4.4,4.18,4.39
		M80.35,38.47c-0.23-7.31-3.05-13.64-7.98-19.27c-2.53-2.89-4.18-2.52-6.53,0.12c-5.86,6.6-8.73,14.2-7.62,22.95
		c0.96,7.58,4.04,14.49,10.79,18.46c2.71,1.59,10.28-11.08,11.13-18.62C80.28,40.98,80.28,39.82,80.35,38.47z M22.43,80.75
		c-7.13-0.05-7.43-0.08-7.58,1.22c-0.34,2.92,1.3,5.31,2.74,7.64c6.89,11.14,17.4,14.11,29.73,13.58c4.37-0.19,4.35-1.71,3.14-5
		C46.55,87.54,35.88,80.84,22.43,80.75z M94.35,103.09c13.74-0.02,24.45-6.58,28.32-17.33c0.64-1.78,2.81-4.25-1.47-5.04
		c-12.01-2.22-25.03,3.21-31.18,13.36c-1.52,2.51-4.08,5.41-2.49,8.16C88.74,104.33,92.22,102.7,94.35,103.09z M42.73,158.9
		c2.49-0.47,6.7,1.47,8.01-0.92c1.71-3.12-1.29-6.49-3.22-9.29c-6.89-9.99-16.87-12.67-28.39-12.26c-4.37,0.16-5.14,1.23-3.57,5.2
		C19.62,151.9,30.05,158.76,42.73,158.9z M94.57,158.89c13.66-0.04,24.69-6.98,28.24-17.65c0.53-1.6,2.45-3.78-1.26-4.71
		c-10.83-2.7-25.18,3.11-31.35,13.06c-1.56,2.51-4.12,5.42-2.75,8.15C88.76,160.37,92.44,158.31,94.57,158.89z M21.87,192.34
		c-1.78,1.08-5.4-1.77-6.84,1.19c-1.22,2.51,1.07,5.23,2.5,7.56c6.84,11.17,17.31,14.25,29.66,13.69c4.07-0.18,4.62-1.32,3.34-4.88
		C46.71,199.3,35.94,192.44,21.87,192.34z M94.39,214.69c13.75-0.03,24.62-6.77,28.35-17.47c0.64-1.84,2.65-4.24-1.7-4.93
		c-12.36-1.97-24.97,3.33-31.11,13.53c-1.41,2.35-3.73,5.07-2.56,7.55C88.71,216.21,92.3,214.05,94.39,214.69z M43.66,270.49
		c2.15-0.56,5.85,1.44,7.19-1.07c1.44-2.69-1.09-5.67-2.67-8.16c-6.86-10.75-17.17-13.68-29.25-13.26c-4.8,0.17-4.71,1.82-3.27,5.38
		C19.91,263.92,30.27,270.44,43.66,270.49z M94.79,270.48c13.36-0.06,23.93-6.63,27.83-17.22c0.65-1.77,2.88-4.25-1.29-5.12
		c-11.65-2.45-25.07,3.12-31.24,13.23c-1.53,2.51-4.15,5.47-2.57,8.15C88.9,271.87,92.59,270.01,94.79,270.48z"/>
</svg>
