<svg xmlns="http://www.w3.org/2000/svg" viewBox="0 0 496 496">
    <path d="m416.953125 298.648438-32.953125-37.65625v-36.992188h-16v-56h72v-16c-18.769531 0-37.039062-6.617188-51.464844-18.632812l-116.535156-97.109376v-12.257812c0-13.230469-10.769531-24-24-24s-24 10.769531-24 24v12.257812l-116.535156 97.117188c-14.425782 12.007812-32.695313 18.625-51.464844 18.625v16h72v56h-16v36.992188l-32.953125 37.65625c-11.871094 13.566406-29.015625 21.351562-47.046875 21.351562v16h64v144h-64v16h432v-16h-64v-144h64v-16c-18.03125 0-35.175781-7.785156-47.046875-21.351562zm-240.953125-58.648438v16h-16v-16zm112-16h-32v-64h32zm-48 0h-32v-64h32zm-48 16h16v16h-16zm32 0h16v16h-16zm32 0h16v16h-16zm32 0h16v16h-16zm32 0h16v16h-16zm32 0h16v16h-16zm-104-224c4.40625 0 8 3.59375 8 8v8h-16v-8c0-4.40625 3.59375-8 8-8zm-130.296875 129.664062 117.191406-97.664062h26.210938l117.191406 97.664062c2.726563 2.28125 5.574219 4.390626 8.527344 6.335938h-23.894531l-95.65625-80.9375c-10.761719-9.109375-27.792969-9.109375-38.546876 0l-95.65625 80.9375h-23.894531c2.953125-1.953125 5.800781-4.0625 8.527344-6.335938zm26.296875 18.046876 95.0625-80.4375c4.992188-4.21875 12.882812-4.21875 17.875 0l95.0625 80.4375v60.289062h-48v-80h-112v80h-48zm0 76.289062v16h-16v-16zm240 240h-272v-144h272zm-304.496094-160c4.183594-3.175781 8.070313-6.792969 11.585938-10.816406l32.542968-37.183594h248.742188l32.535156 37.183594c3.515625 4.015625 7.402344 7.632812 11.585938 10.816406zm0 0"/>
    <path d="m224 464v-112h-96v112zm-80-32h24v16h-24zm24-16h-24v-16h24zm16-16h24v16h-24zm0 48v-16h24v16zm24-64h-24v-16h24zm-40-16v16h-24v-16zm0 0"/>
    <path d="m368 352h-96v112h96zm-16 32h-24v-16h24zm-24 16h24v16h-24zm-16 16h-24v-16h24zm0-48v16h-24v-16zm-24 64h24v16h-24zm40 16v-16h24v16zm0 0"/>
    <path d="m240 112h16v16h-16zm0 0"/>
</svg>